HIERARCHY
ROOT Hips
{
	OFFSET 0.000000 0.000000 0.000000
	CHANNELS 6 Xposition Yposition Zposition Zrotation Yrotation Xrotation 
	JOINT LowerBack
	{
		OFFSET 0.000000 0.000000 0.000000
		CHANNELS 3 Zrotation Yrotation Xrotation
		JOINT Spine
		{
			OFFSET 0.028270 2.035590 -0.193380
			CHANNELS 3 Zrotation Yrotation Xrotation
			JOINT Spine1
			{
				OFFSET 0.056720 2.048850 -0.042750
				CHANNELS 3 Zrotation Yrotation Xrotation
				JOINT Neck
				{
					OFFSET 0.000000 0.000000 0.000000
					CHANNELS 3 Zrotation Yrotation Xrotation
					JOINT Neck1
					{
						OFFSET -0.054170 1.746240 0.172020
						CHANNELS 3 Zrotation Yrotation Xrotation
						JOINT Head
						{
							OFFSET 0.104070 1.761360 -0.123970
							CHANNELS 3 Zrotation Yrotation Xrotation
							End Site
							{
								OFFSET 0.000000 0.000000 0.000000
							}
						}
					}
				}
				JOINT LeftShoulder
				{
					OFFSET 0.000000 0.000000 0.000000
					CHANNELS 3 Zrotation Yrotation Xrotation
					JOINT LeftArm
					{
						OFFSET 3.362410 1.200890 -0.311210
						CHANNELS 3 Zrotation Yrotation Xrotation
						JOINT LeftForeArm
						{
							OFFSET 4.983000 -0.000000 -0.000000
							CHANNELS 3 Zrotation Yrotation Xrotation
							JOINT LeftHand
							{
								OFFSET 3.483560 -0.000000 -0.000000
								CHANNELS 3 Zrotation Yrotation Xrotation
								JOINT LeftFingerBase
								{
									OFFSET 0.000000 0.000000 0.000000
									CHANNELS 3 Zrotation Yrotation Xrotation
									JOINT LeftHandIndex1
									{
										OFFSET 0.715260 -0.000000 -0.000000
										CHANNELS 3 Zrotation Yrotation Xrotation
										End Site
										{
											OFFSET 0.000000 0.000000 0.000000
										}
									}
								}
								JOINT LThumb
								{
									OFFSET 0.000000 0.000000 0.000000
									CHANNELS 3 Zrotation Yrotation Xrotation
									End Site
									{
										OFFSET 0.000000 0.000000 0.000000
									}
								}
							}
						}
					}
				}
				JOINT RightShoulder
				{
					OFFSET 0.000000 0.000000 0.000000
					CHANNELS 3 Zrotation Yrotation Xrotation
					JOINT RightArm
					{
						OFFSET -3.136600 1.374050 -0.404650
						CHANNELS 3 Zrotation Yrotation Xrotation
						JOINT RightForeArm
						{
							OFFSET -5.241900 -0.000000 -0.000000
							CHANNELS 3 Zrotation Yrotation Xrotation
							JOINT RightHand
							{
								OFFSET -3.444170 -0.000000 -0.000000
								CHANNELS 3 Zrotation Yrotation Xrotation
								JOINT RightFingerBase
								{
									OFFSET 0.000000 0.000000 0.000000
									CHANNELS 3 Zrotation Yrotation Xrotation
									JOINT RightHandIndex1
									{
										OFFSET -0.622530 -0.000000 -0.000000
										CHANNELS 3 Zrotation Yrotation Xrotation
										End Site
										{
											OFFSET 0.000000 0.000000 0.000000
										}
									}
								}
								JOINT RThumb
								{
									OFFSET 0.000000 0.000000 0.000000
									CHANNELS 3 Zrotation Yrotation Xrotation
									End Site
									{
										OFFSET 0.000000 0.000000 0.000000
									}
								}
							}
						}
					}
				}
			}
		}
	}
}
}
MOTION
Frames: 13
Frame Time: 0.008333
0.457626 17.731823 -1.096961 -147.324952 82.602472 -116.497379 7.365369 -4.328482 1.478354 1.990571 -4.697785 -2.546597 -2.104527 -4.762862 1.010232 0.377844 -17.185869 -4.523300 -2.267495 -0.207959 0.655628 0.000000 0.000000 0.000000 10.235771 6.823479 -2.782261 -74.157693 -11.840908 16.463446 -178.520069 -58.075597 179.914423 8.700740 -4.776070 -0.436864 -0.328735 0.817200 -0.000000 0.000000 0.000000 0.000000 0.000000 0.000000 0.000000 -3.292199 -15.596011 -0.784099 61.263965 -36.743274 15.540940 179.873334 84.700522 179.993824 -0.556037 11.157798 -0.053288 -0.020367 -0.298884 -0.000000 0.000000 0.000000 0.000000 0.000000 0.000000 0.000000 
0.709142 17.719972 -1.101985 -147.874346 82.575396 -117.234037 7.388800 -4.415928 1.739165 1.993206 -4.780425 -2.530236 -2.131279 -4.843259 0.873690 0.466792 -17.122815 -4.537244 -2.232567 -0.205189 0.650451 0.000000 0.000000 0.000000 10.439362 6.533189 -2.717435 -73.989233 -10.668398 16.861756 -178.612810 -58.309384 179.913685 8.829949 -4.650930 -0.432113 -0.327297 0.803900 -0.000000 0.000000 0.000000 0.000000 0.000000 0.000000 0.000000 -3.371518 -15.383975 -0.774268 61.737566 -37.573173 14.583335 179.837017 83.491952 179.994301 -0.216951 11.051653 -0.018334 -0.028569 -0.305038 -0.000000 0.000000 0.000000 0.000000 0.000000 0.000000 0.000000 
0.959628 17.697132 -1.105893 -148.370907 82.577072 -117.986222 7.386814 -4.493001 2.049153 1.979766 -4.850938 -2.502577 -2.199127 -4.908687 0.730671 0.609988 -16.987941 -4.546246 -2.212466 -0.203422 0.646418 0.000000 0.000000 0.000000 10.514119 6.270479 -2.631997 -73.793848 -9.522214 17.339961 -178.686812 -58.689583 179.912871 9.000476 -4.531611 -0.429437 -0.328935 0.790016 0.000000 0.000000 0.000000 0.000000 0.000000 0.000000 0.000000 -3.334067 -15.108385 -0.763589 62.343743 -38.272585 13.566181 179.803734 82.373738 179.994348 0.055963 10.946316 0.009429 -0.035745 -0.311390 -0.000000 0.000000 0.000000 0.000000 0.000000 0.000000 0.000000 
1.208972 17.663046 -1.108323 -148.824727 82.614033 -118.762683 7.350614 -4.558002 2.403032 1.948608 -4.907224 -2.462849 -2.307002 -4.956966 0.588280 0.805548 -16.799129 -4.552050 -2.204414 -0.202429 0.642972 0.000000 0.000000 0.000000 10.465033 6.051288 -2.529135 -73.564764 -8.434374 17.891184 -178.740510 -59.227300 179.912277 9.184571 -4.423229 -0.427945 -0.332509 0.775615 -0.000000 0.000000 0.000000 0.000000 0.000000 0.000000 0.000000 -3.192281 -14.790792 -0.754562 63.077924 -38.811933 12.522854 179.774609 81.351255 179.994278 0.244789 10.860048 0.028403 -0.041622 -0.318273 -0.000000 0.000000 0.000000 0.000000 0.000000 0.000000 0.000000 
1.457762 17.617010 -1.109968 -149.057986 82.658953 -119.355210 7.319917 -4.605414 2.763363 1.909833 -4.945641 -2.417807 -2.449915 -4.985183 0.453777 1.040043 -16.575694 -4.557028 -2.205060 -0.201965 0.639676 0.000000 0.000000 0.000000 10.287850 5.886055 -2.410152 -73.308273 -7.417361 18.499861 -178.773287 -59.932461 179.912276 9.345585 -4.317814 -0.425249 -0.336592 0.760345 -0.000000 0.000000 0.000000 0.000000 0.000000 0.000000 0.000000 -2.975459 -14.449089 -0.748710 63.915964 -39.175157 11.490307 179.749847 80.419232 179.994050 0.352479 10.807579 0.039187 -0.046251 -0.325953 -0.000000 0.000000 0.000000 0.000000 0.000000 0.000000 0.000000 
1.706106 17.558395 -1.110617 -149.107457 82.714862 -119.796392 7.285972 -4.635267 3.119999 1.863006 -4.965691 -2.368237 -2.621639 -4.993080 0.333245 1.306528 -16.344565 -4.565347 -2.210402 -0.201700 0.635498 0.000000 0.000000 0.000000 10.002735 5.778484 -2.280158 -73.035938 -6.476632 19.140322 -178.788894 -60.810912 179.913209 9.444690 -4.216703 -0.419763 -0.339321 0.744043 -0.000000 0.000000 0.000000 0.000000 0.000000 0.000000 0.000000 -2.704638 -14.109792 -0.748336 64.830077 -39.344196 10.517796 179.729891 79.573995 179.993613 0.383798 10.803427 0.042582 -0.049775 -0.334710 -0.000000 0.000000 0.000000 0.000000 0.000000 0.000000 0.000000 
1.954457 17.486517 -1.110843 -148.891431 82.764770 -119.987321 7.270103 -4.645557 3.450482 1.814417 -4.966162 -2.318198 -2.815175 -4.980061 0.231786 1.593409 -16.130992 -4.581430 -2.217135 -0.201371 0.629436 0.000000 0.000000 0.000000 9.619522 5.727093 -2.142189 -72.766056 -5.604994 19.780901 -178.791878 -61.871383 179.915368 9.446673 -4.116660 -0.409802 -0.339124 0.726424 -0.000000 0.000000 0.000000 0.000000 0.000000 0.000000 0.000000 -2.403783 -13.795268 -0.754545 65.780543 -39.308861 9.650029 179.714772 78.812811 179.992967 0.357911 10.853509 0.040582 -0.052524 -0.344628 -0.000000 0.000000 0.000000 0.000000 0.000000 0.000000 0.000000 
2.203334 17.400902 -1.111094 -148.392919 82.797428 -119.894156 7.282303 -4.635957 3.733083 1.767727 -4.947222 -2.271854 -3.024267 -4.946894 0.153114 1.892389 -15.957210 -4.609773 -2.223130 -0.200810 0.620622 0.000000 0.000000 0.000000 9.150731 5.724677 -1.999431 -72.518418 -4.784792 20.385857 -178.789020 -63.121559 179.918914 9.326596 -4.012731 -0.394173 -0.334847 0.707128 0.000000 0.000000 0.000000 0.000000 0.000000 0.000000 0.000000 -2.086906 -13.525037 -0.768480 66.725589 -39.064532 8.925196 179.704152 78.139246 179.992159 0.300255 10.953573 0.035489 -0.054864 -0.355562 -0.000000 0.000000 0.000000 0.000000 0.000000 0.000000 0.000000 
2.452949 17.301455 -1.111910 -147.619008 82.803862 -119.516921 7.329423 -4.606965 3.959712 1.725187 -4.909670 -2.231043 -3.244605 -4.894822 0.098408 2.198920 -15.837732 -4.653310 -2.228020 -0.199986 0.608453 0.000000 0.000000 0.000000 8.607303 5.759739 -1.854281 -72.311762 -3.997918 20.917628 -178.788293 -64.570933 179.923816 9.076972 -3.908639 -0.373181 -0.326066 0.686137 0.000000 0.000000 0.000000 0.000000 0.000000 0.000000 0.000000 -1.756726 -13.312646 -0.790107 67.629044 -38.607417 8.365530 179.697561 77.567335 179.991280 0.237284 11.090584 0.029897 -0.057130 -0.367146 -0.000000 0.000000 0.000000 0.000000 0.000000 0.000000 0.000000 
2.703454 17.188545 -1.113754 -146.625618 82.778863 -118.904966 7.410793 -4.559961 4.124601 1.686862 -4.855139 -2.197312 -3.474313 -4.825853 0.067265 2.513383 -15.777248 -4.713186 -2.233210 -0.199014 0.592835 0.000000 0.000000 0.000000 7.997045 5.819197 -1.708127 -72.159326 -3.223913 21.342132 -178.798722 -66.233915 179.929852 8.710681 -3.805438 -0.348124 -0.313185 0.663314 0.000000 0.000000 0.000000 0.000000 0.000000 0.000000 0.000000 -1.402250 -13.163670 -0.819255 68.461703 -37.937051 7.975459 179.694159 77.122168 179.990437 0.192512 11.240697 0.026005 -0.059496 -0.378730 -0.000000 0.000000 0.000000 0.000000 0.000000 0.000000 0.000000 
2.954657 17.063136 -1.117543 -145.388725 82.707971 -118.030604 7.541690 -4.494474 4.229136 1.655485 -4.783948 -2.171566 -3.713598 -4.740689 0.056052 2.836563 -15.766072 -4.786891 -2.242155 -0.198189 0.574438 0.000000 0.000000 0.000000 7.318980 5.886671 -1.560380 -72.070763 -2.444855 21.627540 -178.829146 -68.124394 179.936616 8.261104 -3.710768 -0.321092 -0.297401 0.638842 -0.000000 0.000000 0.000000 0.000000 0.000000 0.000000 0.000000 -1.006281 -13.070684 -0.853703 69.204284 -37.054001 7.735596 179.692941 76.838830 179.989804 0.184406 11.375440 0.025713 -0.061976 -0.389488 -0.000000 0.000000 0.000000 0.000000 0.000000 0.000000 0.000000 
3.206293 16.926649 -1.123141 -144.091408 82.602316 -117.073637 7.696635 -4.414441 4.277240 1.624728 -4.699754 -2.153427 -3.965320 -4.643131 0.061846 3.179432 -15.786508 -4.871548 -2.259836 -0.197922 0.554157 0.000000 0.000000 0.000000 6.582539 5.952213 -1.410910 -72.042212 -1.648733 21.752973 -178.888345 -70.257529 179.943574 7.779028 -3.617825 -0.293778 -0.280409 0.612352 -0.000000 0.000000 0.000000 0.000000 0.000000 0.000000 0.000000 -0.530306 -13.022023 -0.894158 69.845169 -35.960127 7.619479 179.692903 76.759283 179.989525 0.213970 11.458913 0.029219 -0.064146 -0.398420 -0.000000 0.000000 0.000000 0.000000 0.000000 0.000000 0.000000 
3.457658 16.781195 -1.131097 -142.764397 82.456739 -116.064707 7.877193 -4.320449 4.279386 1.593552 -4.603584 -2.142324 -4.233194 -4.534451 0.078228 3.549784 -15.807437 -4.959942 -2.292380 -0.198739 0.533745 0.000000 0.000000 0.000000 5.788116 6.002055 -1.257607 -72.068908 -0.827037 21.700136 -178.983205 -72.648493 179.950166 7.325779 -3.530249 -0.268869 -0.264058 0.583926 -0.000000 0.000000 0.000000 0.000000 0.000000 0.000000 0.000000 0.060653 -12.992705 -0.938930 70.381169 -34.656544 7.583775 179.693455 76.928567 179.989715 0.273080 11.461723 0.035527 -0.065415 -0.404619 -0.000000 0.000000 0.000000 0.000000 0.000000 0.000000 0.000000 
